<?xml version="1.0" standalone="no"?>
<!DOCTYPE svg PUBLIC "-//W3C//DTD SVG 20010904//EN"
 "http://www.w3.org/TR/2001/REC-SVG-20010904/DTD/svg10.dtd">
<svg version="1.0" xmlns="http://www.w3.org/2000/svg"
 width="792.000000pt" height="871.000000pt" viewBox="0 0 792.000000 871.000000"
 preserveAspectRatio="xMidYMid meet">

<g transform="translate(0.000000,871.000000) scale(0.100000,-0.100000)"
fill="#000000" stroke="none">
<path d="M4160 8500 c0 -5 14 -10 30 -10 17 0 30 5 30 10 0 6 -13 10 -30 10
-16 0 -30 -4 -30 -10z"/>
<path d="M4098 8450 c-7 -11 -18 -20 -24 -20 -6 0 -20 -10 -32 -23 -21 -23
-22 -31 -22 -264 l0 -240 -107 -7 c-421 -27 -810 -144 -970 -290 -82 -75 -93
-104 -93 -261 0 -149 12 -186 76 -250 162 -159 518 -267 1018 -309 51 -4 59
-3 63 15 13 50 18 4 15 -160 l-3 -179 -1113 -276 -1113 -277 -56 27 -56 27
-522 -129 c-589 -145 -600 -149 -656 -243 -18 -29 -37 -77 -42 -105 -12 -64
-19 -4770 -7 -4806 22 -64 45 -79 317 -215 210 -106 278 -135 309 -135 22 0
1355 326 2962 725 2368 588 2931 731 2967 753 49 30 105 104 121 160 17 56 27
4785 11 4834 -7 20 -21 48 -32 62 -31 39 -542 288 -594 289 -22 1 -273 -57
-557 -127 l-517 -128 -38 -51 -38 -51 -285 -71 c-157 -39 -387 -96 -512 -126
l-228 -54 0 -280 c0 -154 -4 -285 -8 -291 -24 -36 -202 -47 -260 -16 l-33 17
-1 445 c0 341 3 452 13 475 7 17 15 75 17 129 3 84 1 102 -12 112 -15 11 -17
71 -19 630 -2 533 0 621 13 637 8 9 20 17 26 17 6 0 19 11 28 25 9 14 14 25
11 25 -3 0 -10 -9 -17 -20z m-78 -1105 l0 -205 -32 0 c-57 0 -229 29 -328 56
-108 28 -244 90 -278 127 l-23 25 33 26 c102 77 311 140 563 170 72 8 65 28
65 -199z"/>
<path d="M4343 7725 c-1 -96 2 -175 7 -175 30 0 250 -33 302 -45 71 -16 185
-53 208 -66 9 -5 -16 -9 -68 -9 l-83 0 3 -96 3 -96 243 -103 242 -104 338 83
337 82 3 97 3 97 -33 1 c-18 0 -98 6 -178 12 l-144 12 -8 43 c-34 204 -402
368 -958 427 -74 8 -153 15 -175 15 l-40 0 -2 -175z"/>
<path d="M4343 6665 c0 -27 2 -38 4 -22 2 15 2 37 0 50 -2 12 -4 0 -4 -28z"/>
</g>
</svg>
