<?xml version="1.0" standalone="no"?>
<!DOCTYPE svg PUBLIC "-//W3C//DTD SVG 20010904//EN"
 "http://www.w3.org/TR/2001/REC-SVG-20010904/DTD/svg10.dtd">
<svg version="1.0" xmlns="http://www.w3.org/2000/svg"
 width="977.000000pt" height="640.000000pt" viewBox="0 0 977.000000 640.000000"
 preserveAspectRatio="xMidYMid meet">

<g transform="translate(0.000000,640.000000) scale(0.100000,-0.100000)"
fill="#000000" stroke="none">
<path d="M5135 5987 c11 -9 23 -13 28 -10 4 2 6 -1 5 -9 -2 -8 5 -12 17 -11
11 1 14 0 7 -3 -6 -3 -9 -10 -6 -16 4 -6 6 -79 5 -162 -2 -176 5 -210 40 -214
299 -32 561 -146 653 -284 28 -40 33 -55 25 -70 -5 -10 -7 -24 -3 -31 4 -6 4
-9 0 -5 -4 4 -22 -10 -39 -30 -18 -20 -37 -40 -44 -45 -7 -4 -10 -15 -7 -25 5
-14 4 -14 -4 -2 -9 12 -14 11 -32 -5 -12 -11 -25 -20 -29 -20 -3 0 -5 -4 -3
-8 1 -5 -2 -5 -8 -2 -6 4 -9 14 -5 23 3 9 3 14 0 10 -4 -3 -18 0 -32 7 -15 8
-30 12 -35 9 -12 -8 2 -26 16 -21 15 6 39 -20 26 -28 -6 -3 -10 -1 -10 6 0 8
-4 8 -15 -1 -8 -7 -16 -10 -16 -6 -3 13 -7 26 -9 31 -1 3 -3 11 -4 18 0 6 -11
13 -23 15 -22 3 -23 1 -23 -83 0 -85 0 -86 45 -153 25 -37 42 -68 38 -69 -5
-1 -111 -21 -238 -44 -126 -23 -234 -45 -239 -50 -9 -8 -9 -579 0 -884 6 -173
5 -205 -9 -231 -18 -36 -69 -63 -124 -68 l-38 -3 -5 361 c-3 199 -5 433 -4
521 0 88 -2 162 -6 165 -4 3 -10 277 -12 610 l-5 605 23 22 c19 18 21 22 8 27
-9 3 -27 6 -40 6 -46 0 -113 22 -139 46 -34 31 -32 60 5 83 16 10 27 21 23 24
-8 8 -97 9 -105 1 -3 -3 -38 -7 -78 -9 -40 -3 -78 -9 -85 -15 -6 -5 -15 -7
-18 -4 -8 9 -57 -4 -57 -15 0 -5 10 -7 23 -5 20 4 21 4 2 -5 -14 -6 -23 -5
-32 6 -7 9 -17 12 -25 7 -7 -5 -20 -7 -28 -6 -29 4 -194 -47 -203 -64 -6 -10
-12 -13 -16 -6 -7 11 -138 -29 -150 -45 -3 -4 -15 -10 -26 -11 -11 -2 -23 -8
-26 -14 -3 -5 -9 -9 -13 -9 -20 3 -26 -1 -27 -16 0 -10 -3 -13 -5 -6 -6 14
-84 -26 -125 -63 -14 -13 -28 -24 -32 -24 -5 0 -13 -5 -20 -10 -7 -6 -23 -18
-36 -28 -19 -14 -21 -21 -11 -27 9 -6 11 -4 5 5 -5 9 -4 11 3 6 21 -13 13 -27
-11 -21 -27 7 -64 -26 -51 -46 4 -7 3 -10 -3 -6 -10 7 -60 -39 -55 -51 1 -4
-4 -14 -11 -22 -26 -31 -28 -40 -13 -56 9 -8 16 -20 16 -27 0 -6 -6 -2 -14 9
-8 10 -17 16 -20 13 -23 -22 -33 -262 -16 -363 33 -197 237 -378 554 -492 75
-26 87 -33 66 -38 -14 -4 -444 -84 -957 -179 l-932 -173 -83 -57 c-46 -31 -94
-65 -108 -76 -19 -14 -228 -56 -875 -176 -467 -86 -864 -160 -881 -165 -40
-10 -184 -117 -194 -144 -4 -11 -5 -196 -2 -411 4 -345 6 -393 21 -420 10 -16
412 -568 894 -1225 886 -1208 910 -1239 1007 -1289 74 -39 82 -38 735 83 341
64 634 122 650 131 39 20 4535 856 4600 856 62 -1 1228 214 1273 234 39 18
137 89 148 107 5 7 7 193 5 413 -2 310 -6 405 -16 425 -8 14 -413 569 -902
1234 l-888 1209 -78 53 c-43 29 -95 56 -114 60 -25 5 -170 -18 -493 -78 l-458
-86 -103 24 c-169 38 -153 30 -131 62 46 66 57 119 57 284 0 107 -4 161 -12
169 -6 6 -9 17 -7 24 6 15 -40 110 -67 140 -64 72 -109 117 -109 109 0 -5 -5
-2 -10 7 -10 17 -112 89 -125 89 -4 0 -2 -6 4 -14 8 -9 8 -16 2 -20 -5 -4 -12
-2 -16 4 -3 5 -4 10 0 10 3 0 1 10 -6 21 -9 17 -13 19 -20 8 -7 -11 -9 -10 -9
4 0 15 -6 19 -26 16 -4 0 -10 4 -13 9 -10 16 -94 50 -118 47 -12 -1 -20 1 -18
5 5 8 -17 18 -99 44 -39 13 -51 13 -58 4 -5 -9 -8 -8 -8 5 0 12 -9 17 -27 19
-34 1 -44 3 -63 11 -29 12 -96 25 -155 32 -33 3 -69 8 -80 11 -16 4 -17 3 -5
-5 9 -7 10 -11 3 -11 -6 0 -14 4 -18 9 -3 5 -36 12 -73 16 -37 3 -92 8 -122
11 -50 5 -53 4 -35 -9z m-385 -27 c0 -5 -8 -10 -17 -10 -15 0 -16 2 -3 10 19
12 20 12 20 0z m600 6 c0 -2 -7 -7 -16 -10 -8 -3 -12 -2 -9 4 6 10 25 14 25 6z
m-690 -32 c0 -2 -7 -4 -15 -4 -8 0 -15 4 -15 10 0 5 7 7 15 4 8 -4 15 -8 15
-10z m650 -6 c0 -6 -6 -5 -15 2 -8 7 -15 14 -15 16 0 2 7 1 15 -2 8 -4 15 -11
15 -16z m-493 -40 c-3 -8 -6 -5 -6 6 -1 11 2 17 5 13 3 -3 4 -12 1 -19z m976
-33 c-7 -21 -12 -19 -10 4 0 11 5 18 9 15 4 -3 5 -11 1 -19z m-806 -41 c-3 -3
-12 -4 -19 -1 -8 3 -5 6 6 6 11 1 17 -2 13 -5z m44 -8 c-14 -17 -51 -28 -51
-15 0 5 7 9 15 9 8 0 15 5 15 10 0 6 7 10 16 10 13 0 14 -3 5 -14z m931 -13
c-6 -3 -10 -9 -6 -14 3 -5 0 -9 -5 -9 -6 0 -11 4 -11 8 0 12 23 32 29 25 3 -3
0 -8 -7 -10z m-1859 0 c-7 -2 -13 -12 -13 -20 0 -9 -3 -14 -6 -10 -10 10 4 37
18 36 10 0 10 -2 1 -6z m18 -16 c-10 -9 -11 -8 -5 6 3 10 9 15 12 12 3 -3 0
-11 -7 -18z m-127 -48 c-3 -5 -9 -7 -14 -4 -4 3 -10 0 -12 -7 -3 -7 -10 -8
-17 -4 -9 6 -7 12 11 21 25 13 42 10 32 -6z m2146 -3 c0 -2 -7 -7 -16 -10 -8
-3 -12 -2 -9 4 6 10 25 14 25 6z m-2223 -31 c0 -8 -4 -12 -9 -9 -5 3 -6 10 -3
15 9 13 12 11 12 -6z m633 11 c0 -3 -4 -8 -10 -11 -5 -3 -10 -1 -10 4 0 6 5
11 10 11 6 0 10 -2 10 -4z m1630 -36 c0 -5 -5 -10 -11 -10 -5 0 -7 5 -4 10 3
6 8 10 11 10 2 0 4 -4 4 -10z m-2300 -4 c0 -3 -4 -8 -10 -11 -5 -3 -10 -1 -10
4 0 6 5 11 10 11 6 0 10 -2 10 -4z m10 -26 c0 -5 -5 -10 -11 -10 -5 0 -7 5 -4
10 3 6 8 10 11 10 2 0 4 -4 4 -10z m1885 -58 c-3 -3 -11 0 -18 7 -9 10 -8 11
6 5 10 -3 15 -9 12 -12z m525 -2 c0 -5 -2 -10 -4 -10 -3 0 -8 5 -11 10 -3 6
-1 10 4 10 6 0 11 -4 11 -10z m-15 -20 c3 -5 1 -10 -4 -10 -6 0 -11 5 -11 10
0 6 2 10 4 10 3 0 8 -4 11 -10z m-1433 -457 c2 -252 3 -460 1 -462 -1 -2 -43
-12 -93 -21 l-90 -17 16 26 c10 14 23 35 31 46 8 13 13 51 13 111 0 102 -1
103 -73 99 -20 -1 -34 2 -31 7 7 11 -3 10 -26 -2 -16 -8 -18 -7 -14 4 3 8 -2
16 -13 19 -35 10 -83 18 -86 15 -2 -2 -11 3 -20 10 -9 8 -22 10 -29 6 -7 -4
-10 -4 -6 1 13 14 -35 33 -51 21 -12 -9 -13 -8 -6 3 6 11 4 13 -8 8 -10 -4
-14 -2 -11 7 5 14 -32 34 -57 31 -10 -2 -16 4 -15 12 0 9 -13 20 -31 27 -17 6
-35 15 -40 20 -5 5 -3 6 5 2 19 -11 14 -1 -10 20 -12 10 -18 13 -13 5 5 -10 4
-12 -3 -7 -7 4 -12 13 -12 19 0 7 -10 23 -21 37 -15 17 -19 19 -15 7 3 -10 2
-16 -3 -13 -15 10 -4 74 19 111 57 93 222 195 400 250 85 26 212 52 261 54
l27 1 4 -457z m982 441 c3 -8 2 -12 -4 -9 -6 3 -10 10 -10 16 0 14 7 11 14 -7z
m501 -13 c3 -5 0 -13 -6 -17 -7 -4 -9 -3 -5 4 3 6 -2 13 -11 15 -16 4 -16 5
-1 6 9 0 19 -3 23 -8z m-429 -33 c3 -4 -1 -5 -10 -4 -8 1 -18 5 -22 8 -3 4 1
5 10 4 8 -1 18 -5 22 -8z m434 -13 c0 -8 -2 -15 -4 -15 -2 0 -6 7 -10 15 -3 8
-1 15 4 15 6 0 10 -7 10 -15z m25 5 c3 -5 1 -10 -4 -10 -6 0 -11 5 -11 10 0 6
2 10 4 10 3 0 8 -4 11 -10z m-460 -20 c3 -6 -1 -7 -9 -4 -18 7 -21 14 -7 14 6
0 13 -4 16 -10z m-2185 -14 c0 -3 -4 -8 -10 -11 -5 -3 -10 -1 -10 4 0 6 5 11
10 11 6 0 10 -2 10 -4z m405 -76 c-3 -5 -12 -10 -18 -10 -7 0 -6 4 3 10 19 12
23 12 15 0z m1862 -42 c-3 -8 -6 -5 -6 6 -1 11 2 17 5 13 3 -3 4 -12 1 -19z
m0 -80 c-3 -8 -6 -5 -6 6 -1 11 2 17 5 13 3 -3 4 -12 1 -19z m-1872 -46 c-3
-3 -11 0 -18 7 -9 10 -8 11 6 5 10 -3 15 -9 12 -12z m1845 -2 c0 -5 -4 -10
-10 -10 -5 0 -10 5 -10 10 0 6 5 10 10 10 6 0 10 -4 10 -10z m-2244 -124 c0
-14 -5 -21 -9 -17 -4 4 -5 15 -1 24 9 24 12 21 10 -7z m475 -13 c12 -16 12
-17 -2 -6 -9 7 -20 9 -24 5 -5 -4 -5 -1 -1 6 9 16 11 15 27 -5z m79 -57 c0 -6
-4 -5 -9 3 -7 11 -9 11 -14 0 -3 -8 -4 -4 -4 8 1 17 4 19 14 11 7 -6 13 -16
13 -22z m-510 4 c6 -11 8 -20 6 -20 -3 0 -10 9 -16 20 -6 11 -8 20 -6 20 3 0
10 -9 16 -20z m575 -32 c3 -3 -1 -8 -10 -12 -11 -4 -14 -2 -9 6 5 7 0 9 -14 6
-12 -4 -24 -2 -27 2 -5 9 51 7 60 -2z m1425 -72 c0 -12 -5 -7 -19 24 -11 24
-11 24 3 6 9 -11 16 -24 16 -30z m-1247 -21 c-7 -21 -12 -19 -10 4 0 11 5 18
9 15 4 -3 5 -11 1 -19z m53 3 c4 -7 4 -10 -1 -6 -4 4 -15 2 -24 -5 -14 -11
-14 -10 -2 6 16 20 18 21 27 5z m-191 -188 c-3 -5 -12 -10 -18 -10 -7 0 -6 4
3 10 19 12 23 12 15 0z m45 -4 c0 -2 -7 -7 -16 -10 -8 -3 -12 -2 -9 4 6 10 25
14 25 6z"/>
<path d="M5028 5763 c7 -3 16 -2 19 1 4 3 -2 6 -13 5 -11 0 -14 -3 -6 -6z"/>
</g>
</svg>
