<?xml version="1.0" standalone="no"?>
<!DOCTYPE svg PUBLIC "-//W3C//DTD SVG 20010904//EN"
 "http://www.w3.org/TR/2001/REC-SVG-20010904/DTD/svg10.dtd">
<svg version="1.0" xmlns="http://www.w3.org/2000/svg"
 width="566.000000pt" height="823.000000pt" viewBox="0 0 566.000000 823.000000"
 preserveAspectRatio="xMidYMid meet">

<g transform="translate(0.000000,823.000000) scale(0.100000,-0.100000)"
fill="#000000" stroke="none">
<path d="M2979 7923 c-12 -16 -12 -16 1 -6 8 6 29 13 45 16 l30 4 -31 2 c-20
0 -37 -6 -45 -16z"/>
<path d="M2912 7867 c-32 -33 -32 -34 -32 -135 0 -90 -2 -102 -17 -102 -49 0
-299 -31 -368 -45 -239 -49 -405 -128 -451 -216 -10 -19 -14 -61 -14 -136 0
-121 11 -150 72 -196 81 -62 262 -128 439 -160 l76 -14 56 41 56 41 1 77 0 77
-37 6 c-121 21 -273 73 -318 109 -30 24 -30 25 -10 40 65 50 269 107 438 122
l77 7 0 -294 0 -294 -987 -143 c-1093 -157 -1043 -147 -1099 -232 -38 -58 -43
-127 -44 -646 l0 -460 30 -22 30 -23 0 -453 c0 -249 -3 -1027 -7 -1729 l-6
-1277 -33 -39 -33 -38 -2 -515 c-1 -578 -5 -548 73 -610 95 -76 282 -202 319
-214 36 -13 176 6 1911 256 1030 148 1892 275 1914 281 56 15 107 59 135 116
l23 48 15 2816 c15 2812 15 2816 -5 2855 -16 31 -58 65 -193 162 -164 115
-176 122 -222 122 -39 0 -1465 -200 -1534 -215 -19 -4 -20 -11 -17 -108 l4
-103 -29 -13 c-41 -19 -132 -25 -182 -11 l-44 12 4 591 c2 326 0 603 -5 616
-6 17 -5 21 3 17 6 -4 11 -4 10 1 -4 21 2 24 19 12 15 -13 16 -12 3 4 -12 15
-9 21 10 19 3 -1 6 6 6 14 0 18 2 19 -35 -19z"/>
<path d="M3151 7814 c0 -11 3 -14 6 -6 3 7 2 16 -1 19 -3 4 -6 -2 -5 -13z"/>
<path d="M3150 7505 l0 -123 68 -7 c164 -16 380 -76 437 -121 19 -15 17 -15
-23 -9 l-43 7 3 -82 3 -81 85 -49 85 -48 160 24 c88 13 161 24 163 24 2 0 2
35 0 78 l-3 77 -42 3 -43 3 0 73 c0 64 -3 77 -27 108 -93 121 -365 207 -765
242 l-58 5 0 -124z"/>
</g>
</svg>
